<svg width="184" height="26" viewBox="0 0 184 26" fill="none" xmlns="http://www.w3.org/2000/svg">
<g clip-path="url(#clip0_24_576)">
<path d="M3.06332 26V14.7385H0V10.6838H3.06332V7.2206C3.06332 4.49917 4.87284 2 9.04235 2C10.7305 2 11.9788 2.15732 11.9788 2.15732L11.8805 5.9437C11.8805 5.9437 10.6074 5.93166 9.21814 5.93166C7.71455 5.93166 7.47365 6.60522 7.47365 7.72316V10.6838H12L11.8031 14.7385H7.47365V26H3.06332Z" fill="#A3A3A3"/>
</g>
<path fill-rule="evenodd" clip-rule="evenodd" d="M38.465 3.066C39.638 3.012 40.012 3 43 3C45.988 3 46.362 3.013 47.534 3.066C48.706 3.119 49.506 3.306 50.206 3.577C50.939 3.854 51.604 4.287 52.154 4.847C52.714 5.396 53.146 6.06 53.422 6.794C53.694 7.494 53.88 8.294 53.934 9.464C53.988 10.639 54 11.013 54 14C54 16.988 53.987 17.362 53.934 18.535C53.881 19.705 53.694 20.505 53.422 21.205C53.146 21.9391 52.7133 22.6042 52.154 23.154C51.604 23.714 50.939 24.146 50.206 24.422C49.506 24.694 48.706 24.88 47.536 24.934C46.362 24.988 45.988 25 43 25C40.012 25 39.638 24.987 38.465 24.934C37.295 24.881 36.495 24.694 35.795 24.422C35.0609 24.146 34.3958 23.7133 33.846 23.154C33.2864 22.6047 32.8533 21.9399 32.577 21.206C32.306 20.506 32.12 19.706 32.066 18.536C32.012 17.361 32 16.987 32 14C32 11.012 32.013 10.638 32.066 9.466C32.119 8.294 32.306 7.494 32.577 6.794C32.8537 6.06008 33.2871 5.39531 33.847 4.846C34.396 4.2865 35.0605 3.85344 35.794 3.577C36.494 3.306 37.294 3.12 38.464 3.066H38.465ZM47.445 5.046C46.285 4.993 45.937 4.982 43 4.982C40.063 4.982 39.715 4.993 38.555 5.046C37.482 5.095 36.9 5.274 36.512 5.425C35.999 5.625 35.632 5.862 35.247 6.247C34.882 6.60205 34.6012 7.03428 34.425 7.512C34.274 7.9 34.095 8.482 34.046 9.555C33.993 10.715 33.982 11.063 33.982 14C33.982 16.937 33.993 17.285 34.046 18.445C34.095 19.518 34.274 20.1 34.425 20.488C34.601 20.965 34.882 21.398 35.247 21.753C35.602 22.118 36.035 22.399 36.512 22.575C36.9 22.726 37.482 22.905 38.555 22.954C39.715 23.007 40.062 23.018 43 23.018C45.938 23.018 46.285 23.007 47.445 22.954C48.518 22.905 49.1 22.726 49.488 22.575C50.001 22.375 50.368 22.138 50.753 21.753C51.118 21.398 51.399 20.965 51.575 20.488C51.726 20.1 51.905 19.518 51.954 18.445C52.007 17.285 52.018 16.937 52.018 14C52.018 11.063 52.007 10.715 51.954 9.555C51.905 8.482 51.726 7.9 51.575 7.512C51.375 6.999 51.138 6.632 50.753 6.247C50.3979 5.88207 49.9657 5.60121 49.488 5.425C49.1 5.274 48.518 5.095 47.445 5.046ZM41.595 17.391C42.3797 17.7176 43.2534 17.7617 44.0669 17.5157C44.8805 17.2697 45.5834 16.7489 46.0556 16.0422C46.5278 15.3356 46.7401 14.4869 46.656 13.6411C46.572 12.7953 46.197 12.005 45.595 11.405C45.2112 11.0215 44.7472 10.7278 44.2363 10.5451C43.7255 10.3625 43.1804 10.2954 42.6405 10.3486C42.1006 10.4019 41.5792 10.5742 41.1138 10.8531C40.6485 11.1321 40.2507 11.5107 39.9493 11.9619C39.6479 12.413 39.4502 12.9253 39.3705 13.462C39.2908 13.9986 39.3312 14.5463 39.4885 15.0655C39.6459 15.5847 39.9165 16.0626 40.2807 16.4647C40.645 16.8668 41.0938 17.1832 41.595 17.391ZM39.002 10.002C39.527 9.47697 40.1503 9.0605 40.8363 8.77636C41.5223 8.49222 42.2575 8.34597 43 8.34597C43.7425 8.34597 44.4777 8.49222 45.1637 8.77636C45.8497 9.0605 46.473 9.47697 46.998 10.002C47.523 10.527 47.9395 11.1503 48.2236 11.8363C48.5078 12.5223 48.654 13.2575 48.654 14C48.654 14.7425 48.5078 15.4777 48.2236 16.1637C47.9395 16.8497 47.523 17.473 46.998 17.998C45.9377 19.0583 44.4995 19.654 43 19.654C41.5005 19.654 40.0623 19.0583 39.002 17.998C37.9417 16.9377 37.346 15.4995 37.346 14C37.346 12.5005 37.9417 11.0623 39.002 10.002ZM49.908 9.188C50.0381 9.06527 50.1423 8.91768 50.2143 8.75397C50.2863 8.59027 50.3248 8.41377 50.3274 8.23493C50.33 8.05609 50.2967 7.87855 50.2295 7.71281C50.1622 7.54707 50.0624 7.39651 49.936 7.27004C49.8095 7.14357 49.6589 7.04376 49.4932 6.97652C49.3275 6.90928 49.1499 6.87598 48.9711 6.87858C48.7922 6.88119 48.6157 6.91965 48.452 6.9917C48.2883 7.06374 48.1407 7.1679 48.018 7.298C47.7793 7.55103 47.6486 7.88712 47.6537 8.23493C47.6588 8.58274 47.7992 8.91488 48.0452 9.16084C48.2911 9.40681 48.6233 9.54723 48.9711 9.5523C49.3189 9.55737 49.655 9.42669 49.908 9.188Z" fill="#A3A3A3"/>
<path fill-rule="evenodd" clip-rule="evenodd" d="M75 3.838C75 3.35053 75.1936 2.88303 75.5383 2.53834C75.883 2.19365 76.3505 2 76.838 2H95.16C95.4016 1.99961 95.6409 2.04687 95.8641 2.13907C96.0874 2.23127 96.2903 2.36661 96.4612 2.53734C96.6322 2.70807 96.7677 2.91083 96.8602 3.13401C96.9526 3.3572 97.0001 3.59643 97 3.838V22.16C97.0003 22.4016 96.9529 22.6409 96.8606 22.8642C96.7683 23.0875 96.6328 23.2904 96.462 23.4613C96.2912 23.6322 96.0884 23.7678 95.8651 23.8602C95.6419 23.9526 95.4026 24.0001 95.161 24H76.838C76.5965 24 76.3575 23.9524 76.1344 23.86C75.9113 23.7676 75.7087 23.6321 75.538 23.4613C75.3673 23.2905 75.2319 23.0878 75.1396 22.8647C75.0473 22.6416 74.9999 22.4025 75 22.161V3.838ZM83.708 10.388H86.687V11.884C87.117 11.024 88.217 10.25 89.87 10.25C93.039 10.25 93.79 11.963 93.79 15.106V20.928H90.583V15.822C90.583 14.032 90.153 13.022 89.061 13.022C87.546 13.022 86.916 14.111 86.916 15.822V20.928H83.708V10.388ZM78.208 20.791H81.416V10.25H78.208V20.79V20.791ZM81.875 6.812C81.881 7.08668 81.8322 7.35979 81.7312 7.61532C81.6303 7.87084 81.4794 8.10364 81.2872 8.30003C81.0951 8.49643 80.8657 8.65248 80.6125 8.75901C80.3592 8.86554 80.0872 8.92042 79.8125 8.92042C79.5378 8.92042 79.2658 8.86554 79.0125 8.75901C78.7593 8.65248 78.5299 8.49643 78.3378 8.30003C78.1456 8.10364 77.9947 7.87084 77.8938 7.61532C77.7928 7.35979 77.744 7.08668 77.75 6.812C77.7619 6.27286 77.9844 5.75979 78.3699 5.38269C78.7554 5.00558 79.2732 4.79442 79.8125 4.79442C80.3518 4.79442 80.8696 5.00558 81.2551 5.38269C81.6406 5.75979 81.8631 6.27286 81.875 6.812Z" fill="#A3A3A3"/>
<path d="M140.643 4.93708C139.808 5.30708 138.911 5.55708 137.968 5.67008C138.941 5.08787 139.669 4.17154 140.016 3.09208C139.102 3.63507 138.101 4.01727 137.058 4.22208C136.356 3.47294 135.427 2.9764 134.414 2.80955C133.402 2.6427 132.362 2.81487 131.457 3.29933C130.552 3.78379 129.833 4.55344 129.41 5.48878C128.988 6.42412 128.886 7.47283 129.12 8.47208C127.268 8.37907 125.456 7.89763 123.801 7.05898C122.147 6.22034 120.688 5.04324 119.518 3.60408C119.118 4.29408 118.888 5.09408 118.888 5.94608C118.888 6.71307 119.076 7.46832 119.438 8.14481C119.799 8.8213 120.322 9.39812 120.96 9.82408C120.22 9.80054 119.497 9.60066 118.85 9.24108V9.30108C118.85 10.3768 119.222 11.4195 119.903 12.2521C120.584 13.0847 121.533 13.656 122.587 13.8691C121.901 14.0548 121.181 14.0821 120.483 13.9491C120.781 14.8747 121.36 15.6841 122.14 16.264C122.921 16.8439 123.863 17.1653 124.835 17.1831C123.185 18.4785 121.147 19.1812 119.049 19.1781C118.677 19.1782 118.306 19.1565 117.937 19.1131C120.066 20.4823 122.545 21.2089 125.077 21.2061C133.647 21.2061 138.332 14.1081 138.332 7.95208C138.332 7.75208 138.327 7.55008 138.318 7.35008C139.229 6.69105 140.016 5.87497 140.641 4.94008L140.643 4.93708Z" fill="#A3A3A3"/>
<path d="M178.73 5.4101L177.45 6.4101L172 10.4601L166.55 6.3701L165.27 5.3701C164.968 5.12064 164.6 4.96514 164.211 4.92285C163.822 4.88056 163.429 4.95334 163.081 5.13218C162.733 5.31102 162.445 5.58806 162.253 5.92897C162.061 6.26988 161.973 6.65969 162 7.0501V18.6401C162 19.0008 162.143 19.3467 162.398 19.6018C162.653 19.8568 162.999 20.0001 163.36 20.0001H166.55V12.2801L172 16.3701L177.45 12.2801V20.0001H180.64C181.001 20.0001 181.347 19.8568 181.602 19.6018C181.857 19.3467 182 19.0008 182 18.6401V7.0501C182.019 6.66306 181.925 6.2789 181.729 5.94432C181.534 5.60974 181.245 5.33914 180.899 5.16543C180.553 4.99171 180.163 4.92235 179.778 4.96579C179.393 5.00923 179.029 5.16358 178.73 5.4101Z" fill="#A3A3A3"/>
<defs>
<clipPath id="clip0_24_576">
<rect width="12" height="24" fill="white" transform="translate(0 2)"/>
</clipPath>
</defs>
</svg>
